<svg width="16" height="20" viewBox="0 0 16 20" fill="none" xmlns="http://www.w3.org/2000/svg">
<path opacity="0.4" d="M8 0C5.38 0 3.25 2.13 3.25 4.75C3.25 7.32 5.26 9.4 7.88 9.49C7.96 9.48 8.04 9.48 8.1 9.49H8.17C9.39936 9.44898 10.5646 8.93148 11.4193 8.04691C12.274 7.16234 12.7512 5.98004 12.75 4.75C12.75 2.13 10.62 0 8 0Z" fill="#61656A"/>
<path d="M13.08 12.15C10.29 10.29 5.74 10.29 2.93 12.15C1.66 13 0.959999 14.15 0.959999 15.38C0.959999 16.61 1.66 17.75 2.92 18.59C4.32 19.53 6.16 20 8 20C9.84 20 11.68 19.53 13.08 18.59C14.34 17.74 15.04 16.6 15.04 15.36C15.03 14.13 14.34 12.99 13.08 12.15Z" fill="#61656A"/>
</svg>
